<svg version="1.1" id="Layer_1" xmlns="http://www.w3.org/2000/svg" xmlns:xlink="http://www.w3.org/1999/xlink" x="0px" y="0px"
	 width="100%" viewBox="0 0 457 145" enable-background="new 0 0 457 145" xml:space="preserve">
<path fill="#89ACC8" opacity="1.000000" stroke="none" 
	d="
M458.000000,11.000000 
	C458.000000,55.962032 458.000000,100.924065 458.000000,146.000000 
	C305.666687,146.000000 153.333344,146.000000 1.278288,145.455231 
	C1.743252,144.888962 1.929928,144.867447 2.574271,144.901642 
	C152.913345,144.974075 302.794739,144.991837 452.676147,144.990021 
	C453.952118,144.990005 455.228088,144.725891 457.010651,144.529175 
	C457.010651,141.650436 457.007721,139.021957 457.011108,136.393478 
	C457.065094,94.595612 457.119843,52.797741 457.380829,10.999868 
	C457.587219,10.999866 458.000000,11.000000 458.000000,11.000000 
z"/>
<path fill="#89ACC8" opacity="1.000000" stroke="none" 
	d="
M458.000000,10.513435 
	C458.000000,11.000000 457.587219,10.999866 457.325104,10.549192 
	C456.942322,7.516611 456.821655,4.934702 456.684143,1.992989 
	C454.135742,1.992989 452.157318,1.993006 450.178894,1.992986 
	C302.652069,1.991530 155.125229,1.989475 7.598396,1.995461 
	C5.769348,1.995535 3.940304,2.098650 1.832551,2.121708 
	C1.369229,2.059831 1.184615,2.029916 1.000000,2.000000 
	C2.331646,1.666667 3.662901,1.043915 4.994997,1.042109 
	C43.455959,0.989976 81.917007,1.000000 120.378044,1.000000 
	C232.918701,1.000000 345.459351,1.000000 458.000000,1.000000 
	C458.000000,4.032929 458.000000,7.029900 458.000000,10.513435 
z"/>
<path fill="#4E89A9" opacity="1.000000" stroke="none" 
	d="
M1.000000,2.468657 
	C1.184615,2.029916 1.369229,2.059831 1.798257,2.578381 
	C2.067314,50.326660 2.091959,97.586304 2.116603,144.845947 
	C1.929928,144.867447 1.743252,144.888962 1.278288,144.955231 
	C1.000000,97.645775 1.000000,50.291542 1.000000,2.468657 
z"/>
<path fill="#176093" opacity="1.000000" stroke="none" 
	d="
M2.574271,144.901642 
	C2.091959,97.586304 2.067314,50.326660 2.076964,2.610342 
	C3.940304,2.098650 5.769348,1.995535 7.598396,1.995461 
	C155.125229,1.989475 302.652069,1.991530 450.178894,1.992986 
	C452.157318,1.993006 454.135742,1.992989 456.684143,1.992989 
	C456.821655,4.934702 456.942322,7.516611 457.118713,10.549196 
	C457.119843,52.797741 457.065094,94.595612 457.011108,136.393478 
	C457.007721,139.021957 457.010651,141.650436 457.010651,144.529175 
	C455.228088,144.725891 453.952118,144.990005 452.676147,144.990021 
	C302.794739,144.991837 152.913345,144.974075 2.574271,144.901642 
M430.554016,17.544474 
	C430.919495,17.903879 431.284943,18.263287 431.650421,18.622671 
	C432.084625,18.040510 432.518860,17.458347 433.025421,16.250738 
	C433.697601,15.656260 434.369781,15.061781 435.263245,14.775607 
	C435.464722,14.953434 435.699432,15.031978 436.744934,15.367121 
	C436.744934,18.738487 436.744934,22.109854 436.744934,25.481220 
	C437.219208,25.546265 437.693512,25.611311 438.167786,25.676355 
	C438.557159,24.128017 438.946533,22.579681 439.991119,21.164114 
	C441.597778,23.162457 443.007416,25.384197 444.902527,27.055490 
	C445.726562,27.782183 448.656952,27.721752 448.746124,27.434179 
	C449.701843,24.353600 450.280029,21.155910 450.823334,17.286385 
	C449.583099,12.572735 446.550995,10.058001 441.666321,9.756027 
	C436.141479,9.414476 432.552673,11.909548 430.554016,17.544474 
M200.531189,26.517744 
	C198.032318,26.519218 195.517410,26.355795 193.041824,26.596645 
	C191.922440,26.705553 190.250107,27.361021 189.905121,28.207338 
	C187.296799,34.606113 184.955902,41.113903 182.318497,48.156593 
	C184.646332,48.156593 186.127838,48.156528 187.609344,48.156605 
	C206.101379,48.157547 224.593582,48.199638 243.085358,48.131020 
	C247.803574,48.113514 251.423981,49.627750 252.280594,54.594219 
	C252.774200,57.456051 252.370132,60.472706 252.370132,63.832703 
	C250.243484,63.832703 248.614700,63.832504 246.985916,63.832726 
	C233.491730,63.834572 219.995193,63.695934 206.504715,63.920712 
	C202.240753,63.991760 197.779190,64.399826 193.776703,65.748070 
	C180.090973,70.358109 172.406067,84.121101 174.882874,98.675972 
	C177.258759,112.637779 189.413422,122.723320 204.367691,122.801064 
	C226.524231,122.916252 248.681793,122.833061 270.838928,122.816566 
	C271.795685,122.815857 272.752319,122.637634 274.167267,122.496338 
	C274.167267,120.642891 274.167297,119.017319 274.167267,117.391747 
	C274.166931,97.733536 274.191254,78.075294 274.159302,58.417133 
	C274.127228,38.675140 262.187500,26.627306 242.506271,26.526167 
	C228.845871,26.455965 215.184769,26.515894 200.531189,26.517744 
M376.500366,26.518135 
	C370.001892,26.518448 363.501892,26.445312 357.006226,26.580252 
	C355.686859,26.607660 353.560303,27.074530 353.204224,27.924551 
	C350.490845,34.402401 348.124542,41.025631 345.439453,48.163902 
	C348.235016,48.163902 350.053925,48.164116 351.872833,48.163864 
	C370.035278,48.161369 388.197723,48.140404 406.360107,48.167694 
	C411.659149,48.175659 415.202911,50.740288 415.716278,55.171364 
	C416.032410,57.900192 415.774780,60.695492 415.774780,63.838673 
	C413.342255,63.838673 411.535919,63.838814 409.729584,63.838650 
	C396.399353,63.837433 383.063812,63.620041 369.741669,63.947914 
	C364.841919,64.068504 359.643005,64.652946 355.153992,66.454582 
	C342.175751,71.663315 335.351868,85.605316 338.158539,99.627815 
	C340.826385,112.956329 352.965057,122.708374 367.489075,122.794571 
	C389.649811,122.926094 411.811890,122.832245 433.973389,122.809837 
	C434.922638,122.808876 435.871613,122.564651 436.904510,122.422195 
	C437.002533,121.380356 437.145447,120.566841 437.145874,119.753242 
	C437.157898,97.924995 437.283508,76.095718 437.108368,54.268867 
	C436.998199,40.536926 425.784546,28.082081 411.959412,27.066118 
	C400.521423,26.225576 388.990265,26.652649 376.500366,26.518135 
M95.161560,65.019920 
	C91.869514,64.626442 88.581352,63.936848 85.284714,63.893612 
	C74.293571,63.749458 63.299313,63.812805 52.306412,63.847893 
	C47.968796,63.861740 44.829529,62.172161 43.754597,57.791965 
	C42.412800,52.324337 46.239235,48.197639 52.664635,48.179955 
	C69.820282,48.132736 86.976402,48.201309 104.131462,48.090157 
	C105.727905,48.079819 108.312561,47.545666 108.749069,46.529247 
	C111.469131,40.195431 113.707787,33.654873 116.238419,26.825520 
	C93.133125,26.825520 70.672012,26.337004 48.245342,27.004990 
	C34.337769,27.419233 23.306187,39.106930 22.016426,52.681168 
	C20.629187,67.281319 28.951895,80.112068 42.740997,84.044380 
	C46.358162,85.075912 50.276039,85.360512 54.065159,85.423149 
	C64.888680,85.602089 75.718170,85.398582 86.542915,85.535332 
	C91.320000,85.595680 94.757309,88.994957 94.810265,93.161880 
	C94.862961,97.308662 91.422424,100.755562 86.794701,101.108749 
	C85.303520,101.222557 83.798515,101.168526 82.299835,101.168770 
	C66.143425,101.171417 49.986649,101.121468 33.831196,101.245575 
	C32.266457,101.257599 29.758789,101.932648 29.305637,102.991722 
	C26.587194,109.345085 24.341909,115.900894 21.773630,122.832672 
	C43.270935,122.832672 64.074707,122.850052 84.878433,122.827011 
	C100.707092,122.809486 113.024605,113.344772 115.802414,99.128242 
	C118.669563,84.454453 110.875664,71.136696 95.161560,65.019920 
M121.526917,48.162270 
	C126.633171,48.162270 131.739426,48.162270 137.375015,48.162270 
	C137.375015,73.388451 137.375015,97.947960 137.375015,122.411255 
	C144.822144,122.411255 151.708099,122.411255 158.970154,122.411255 
	C158.970154,97.556702 158.970154,73.125534 158.970154,48.163116 
	C165.136841,48.163116 170.924927,48.248413 176.706879,48.097965 
	C178.011688,48.064011 180.101578,47.543114 180.459839,46.678543 
	C183.144989,40.198822 185.486404,33.576653 188.119431,26.504875 
	C165.307800,26.504875 143.331818,26.474979 121.356567,26.589222 
	C120.203903,26.595215 118.414490,27.559040 118.012802,28.528919 
	C115.422447,34.783375 113.136017,41.163696 110.501587,48.162270 
	C114.316513,48.162270 117.430542,48.162270 121.526917,48.162270 
M338.484009,26.516148 
	C320.994476,26.514730 303.504517,26.458431 286.016144,26.600130 
	C284.339722,26.613714 281.686127,27.426939 281.167511,28.607544 
	C278.446930,34.800743 276.268005,41.231880 273.621887,48.328571 
	C282.831238,48.328571 291.374359,48.328571 300.461060,48.328571 
	C300.461060,73.484497 300.461060,98.038635 300.461060,122.467316 
	C307.945892,122.467316 314.858826,122.467316 322.250000,122.467316 
	C322.250000,97.545082 322.250000,72.984619 322.250000,48.158081 
	C328.384918,48.158081 334.032440,48.270195 339.669739,48.079803 
	C341.091675,48.031780 343.333801,47.373596 343.746613,46.387695 
	C346.395477,40.061298 348.639923,33.565563 351.242218,26.516087 
	C346.753998,26.516087 343.114258,26.516087 338.484009,26.516148 
M433.197205,25.352135 
	C432.656555,24.009596 432.115906,22.667055 431.575256,21.324516 
	C431.032074,21.700916 430.488892,22.077314 429.945709,22.453714 
	C430.881134,23.508009 431.816559,24.562305 433.197205,25.352135 
M443.222809,30.506132 
	C443.283844,29.959991 443.344879,29.413851 443.405945,28.867710 
	C443.011230,28.949160 442.616516,29.030611 442.221802,29.112072 
	C442.401733,29.645172 442.581665,30.178272 443.222809,30.506132 
M434.502991,28.060574 
	C434.790680,28.322687 435.078369,28.584799 435.366058,28.846901 
	C435.531708,28.661427 435.697327,28.475952 435.862976,28.290470 
	C435.497589,28.114698 435.132172,27.938927 434.502991,28.060574 
M438.519562,30.325678 
	C438.715820,30.050550 438.912079,29.775421 439.108337,29.500275 
	C438.871216,29.385811 438.634064,29.271347 438.396942,29.156893 
	C438.359375,29.449072 438.321838,29.741253 438.519562,30.325678 
z"/>
<path fill="#FDFEFE" opacity="1.000000" stroke="none" 
	d="
M201.027588,26.517715 
	C215.184769,26.515894 228.845871,26.455965 242.506271,26.526167 
	C262.187500,26.627306 274.127228,38.675140 274.159302,58.417133 
	C274.191254,78.075294 274.166931,97.733536 274.167267,117.391747 
	C274.167297,119.017319 274.167267,120.642891 274.167267,122.496338 
	C272.752319,122.637634 271.795685,122.815857 270.838928,122.816566 
	C248.681793,122.833061 226.524231,122.916252 204.367691,122.801064 
	C189.413422,122.723320 177.258759,112.637779 174.882874,98.675972 
	C172.406067,84.121101 180.090973,70.358109 193.776703,65.748070 
	C197.779190,64.399826 202.240753,63.991760 206.504715,63.920712 
	C219.995193,63.695934 233.491730,63.834572 246.985916,63.832726 
	C248.614700,63.832504 250.243484,63.832703 252.370132,63.832703 
	C252.370132,60.472706 252.774200,57.456051 252.280594,54.594219 
	C251.423981,49.627750 247.803574,48.113514 243.085358,48.131020 
	C224.593582,48.199638 206.101379,48.157547 187.609344,48.156605 
	C186.127838,48.156528 184.646332,48.156593 182.318497,48.156593 
	C184.955902,41.113903 187.296799,34.606113 189.905121,28.207338 
	C190.250107,27.361021 191.922440,26.705553 193.041824,26.596645 
	C195.517410,26.355795 198.032318,26.519218 201.027588,26.517715 
M233.498917,85.456146 
	C224.187241,85.459038 214.875320,85.420647 205.563995,85.479630 
	C199.549164,85.517723 196.031662,88.432899 195.988159,93.225967 
	C195.944016,98.088470 199.401306,101.124153 205.379257,101.163551 
	C217.018326,101.240265 228.658264,101.187263 240.297836,101.187866 
	C244.230698,101.188072 248.163559,101.187904 252.196716,101.187904 
	C252.196716,95.689255 252.196716,90.799934 252.196716,85.456200 
	C246.069046,85.456200 240.283432,85.456200 233.498917,85.456146 
z"/>
<path fill="#FDFEFE" opacity="1.000000" stroke="none" 
	d="
M377.000366,26.518105 
	C388.990265,26.652649 400.521423,26.225576 411.959412,27.066118 
	C425.784546,28.082081 436.998199,40.536926 437.108368,54.268867 
	C437.283508,76.095718 437.157898,97.924995 437.145874,119.753242 
	C437.145447,120.566841 437.002533,121.380356 436.904510,122.422195 
	C435.871613,122.564651 434.922638,122.808876 433.973389,122.809837 
	C411.811890,122.832245 389.649811,122.926094 367.489075,122.794571 
	C352.965057,122.708374 340.826385,112.956329 338.158539,99.627815 
	C335.351868,85.605316 342.175751,71.663315 355.153992,66.454582 
	C359.643005,64.652946 364.841919,64.068504 369.741669,63.947914 
	C383.063812,63.620041 396.399353,63.837433 409.729584,63.838650 
	C411.535919,63.838814 413.342255,63.838673 415.774780,63.838673 
	C415.774780,60.695492 416.032410,57.900192 415.716278,55.171364 
	C415.202911,50.740288 411.659149,48.175659 406.360107,48.167694 
	C388.197723,48.140404 370.035278,48.161369 351.872833,48.163864 
	C350.053925,48.164116 348.235016,48.163902 345.439453,48.163902 
	C348.124542,41.025631 350.490845,34.402401 353.204224,27.924551 
	C353.560303,27.074530 355.686859,26.607660 357.006226,26.580252 
	C363.501892,26.445312 370.001892,26.518448 377.000366,26.518105 
M374.549713,101.186073 
	C388.241180,101.186073 401.932648,101.186073 415.601959,101.186073 
	C415.601959,95.553368 415.601959,90.797569 415.601959,85.608383 
	C398.785004,85.608383 382.208862,85.431427 365.641510,85.733223 
	C361.516937,85.808357 359.108154,89.199249 359.118134,93.271454 
	C359.128754,97.608238 361.763641,100.390587 366.105988,101.016251 
	C368.551727,101.368637 371.079956,101.148369 374.549713,101.186073 
z"/>
<path fill="#FCFDFE" opacity="1.000000" stroke="none" 
	d="
M95.557961,65.116493 
	C110.875664,71.136696 118.669563,84.454453 115.802414,99.128242 
	C113.024605,113.344772 100.707092,122.809486 84.878433,122.827011 
	C64.074707,122.850052 43.270935,122.832672 21.773630,122.832672 
	C24.341909,115.900894 26.587194,109.345085 29.305637,102.991722 
	C29.758789,101.932648 32.266457,101.257599 33.831196,101.245575 
	C49.986649,101.121468 66.143425,101.171417 82.299835,101.168770 
	C83.798515,101.168526 85.303520,101.222557 86.794701,101.108749 
	C91.422424,100.755562 94.862961,97.308662 94.810265,93.161880 
	C94.757309,88.994957 91.320000,85.595680 86.542915,85.535332 
	C75.718170,85.398582 64.888680,85.602089 54.065159,85.423149 
	C50.276039,85.360512 46.358162,85.075912 42.740997,84.044380 
	C28.951895,80.112068 20.629187,67.281319 22.016426,52.681168 
	C23.306187,39.106930 34.337769,27.419233 48.245342,27.004990 
	C70.672012,26.337004 93.133125,26.825520 116.238419,26.825520 
	C113.707787,33.654873 111.469131,40.195431 108.749069,46.529247 
	C108.312561,47.545666 105.727905,48.079819 104.131462,48.090157 
	C86.976402,48.201309 69.820282,48.132736 52.664635,48.179955 
	C46.239235,48.197639 42.412800,52.324337 43.754597,57.791965 
	C44.829529,62.172161 47.968796,63.861740 52.306412,63.847893 
	C63.299313,63.812805 74.293571,63.749458 85.284714,63.893612 
	C88.581352,63.936848 91.869514,64.626442 95.557961,65.116493 
z"/>
<path fill="#FBFCFD" opacity="1.000000" stroke="none" 
	d="
M121.035744,48.162270 
	C117.430542,48.162270 114.316513,48.162270 110.501587,48.162270 
	C113.136017,41.163696 115.422447,34.783375 118.012802,28.528919 
	C118.414490,27.559040 120.203903,26.595215 121.356567,26.589222 
	C143.331818,26.474979 165.307800,26.504875 188.119431,26.504875 
	C185.486404,33.576653 183.144989,40.198822 180.459839,46.678543 
	C180.101578,47.543114 178.011688,48.064011 176.706879,48.097965 
	C170.924927,48.248413 165.136841,48.163116 158.970154,48.163116 
	C158.970154,73.125534 158.970154,97.556702 158.970154,122.411255 
	C151.708099,122.411255 144.822144,122.411255 137.375015,122.411255 
	C137.375015,97.947960 137.375015,73.388451 137.375015,48.162270 
	C131.739426,48.162270 126.633171,48.162270 121.035744,48.162270 
z"/>
<path fill="#FDFDFE" opacity="1.000000" stroke="none" 
	d="
M338.979248,26.516117 
	C343.114258,26.516087 346.753998,26.516087 351.242218,26.516087 
	C348.639923,33.565563 346.395477,40.061298 343.746613,46.387695 
	C343.333801,47.373596 341.091675,48.031780 339.669739,48.079803 
	C334.032440,48.270195 328.384918,48.158081 322.250000,48.158081 
	C322.250000,72.984619 322.250000,97.545082 322.250000,122.467316 
	C314.858826,122.467316 307.945892,122.467316 300.461060,122.467316 
	C300.461060,98.038635 300.461060,73.484497 300.461060,48.328571 
	C291.374359,48.328571 282.831238,48.328571 273.621887,48.328571 
	C276.268005,41.231880 278.446930,34.800743 281.167511,28.607544 
	C281.686127,27.426939 284.339722,26.613714 286.016144,26.600130 
	C303.504517,26.458431 320.994476,26.514730 338.979248,26.516117 
z"/>
<path fill="#2F729E" opacity="1.000000" stroke="none" 
	d="
M435.967407,15.011238 
	C435.699432,15.031978 435.464722,14.953434 435.165771,14.221993 
	C440.502655,9.658140 445.094757,10.434980 448.724182,15.889290 
	C449.276062,16.718695 450.206451,17.296280 450.961731,17.990335 
	C450.280029,21.155910 449.701843,24.353600 448.746124,27.434179 
	C448.656952,27.721752 445.726562,27.782183 444.902527,27.055490 
	C443.007416,25.384197 441.597778,23.162457 439.662903,20.767376 
	C439.362671,18.814983 443.115784,17.944689 440.323578,16.008978 
	C439.187103,15.221133 437.437866,15.317285 435.967407,15.011238 
z"/>
<path fill="#DCE6ED" opacity="1.000000" stroke="none" 
	d="
M450.892548,17.638361 
	C450.206451,17.296280 449.276062,16.718695 448.724182,15.889290 
	C445.094757,10.434980 440.502655,9.658140 435.055145,14.067841 
	C434.369781,15.061781 433.697601,15.656260 432.634338,16.685045 
	C431.747955,17.110390 431.252655,17.101425 430.757324,17.092461 
	C432.552673,11.909548 436.141479,9.414476 441.666321,9.756027 
	C446.550995,10.058001 449.583099,12.572735 450.892548,17.638361 
z"/>
<path fill="#FAFCFC" opacity="1.000000" stroke="none" 
	d="
M436.356171,15.189180 
	C437.437866,15.317285 439.187103,15.221133 440.323578,16.008978 
	C443.115784,17.944689 439.362671,18.814983 439.335297,20.700993 
	C438.946533,22.579681 438.557159,24.128017 438.167786,25.676355 
	C437.693512,25.611311 437.219208,25.546265 436.744934,25.481220 
	C436.744934,22.109854 436.744934,18.738487 436.356171,15.189180 
z"/>
<path fill="#1D6595" opacity="1.000000" stroke="none" 
	d="
M432.974609,25.484367 
	C431.816559,24.562305 430.881134,23.508009 429.945709,22.453714 
	C430.488892,22.077314 431.032074,21.700916 431.575256,21.324516 
	C432.115906,22.667055 432.656555,24.009596 432.974609,25.484367 
z"/>
<path fill="#2D6F9C" opacity="1.000000" stroke="none" 
	d="
M442.992188,30.608753 
	C442.581665,30.178272 442.401733,29.645172 442.221802,29.112068 
	C442.616516,29.030611 443.011230,28.949160 443.405945,28.867710 
	C443.344879,29.413851 443.283844,29.959991 442.992188,30.608753 
z"/>
<path fill="#1D6595" opacity="1.000000" stroke="none" 
	d="
M430.655670,17.318466 
	C431.252655,17.101425 431.747955,17.110390 432.598175,16.997768 
	C432.518860,17.458347 432.084625,18.040510 431.650391,18.622681 
	C431.284943,18.263287 430.919495,17.903879 430.655670,17.318466 
z"/>
<path fill="#2D6F9C" opacity="1.000000" stroke="none" 
	d="
M434.634888,27.911865 
	C435.132172,27.938927 435.497589,28.114698 435.862976,28.290474 
	C435.697327,28.475952 435.531708,28.661427 435.366058,28.846907 
	C435.078369,28.584799 434.790680,28.322687 434.634888,27.911865 
z"/>
<path fill="#2D6F9C" opacity="1.000000" stroke="none" 
	d="
M438.401917,30.179556 
	C438.321838,29.741253 438.359375,29.449072 438.396942,29.156887 
	C438.634064,29.271347 438.871216,29.385811 439.108337,29.500282 
	C438.912079,29.775421 438.715820,30.050550 438.401917,30.179556 
z"/>
<path fill="#1D6496" opacity="1.000000" stroke="none" 
	d="
M233.998352,85.456177 
	C240.283432,85.456200 246.069046,85.456200 252.196716,85.456200 
	C252.196716,90.799934 252.196716,95.689255 252.196716,101.187904 
	C248.163559,101.187904 244.230698,101.188072 240.297836,101.187866 
	C228.658264,101.187263 217.018326,101.240265 205.379257,101.163551 
	C199.401306,101.124153 195.944016,98.088470 195.988159,93.225967 
	C196.031662,88.432899 199.549164,85.517723 205.563995,85.479630 
	C214.875320,85.420647 224.187241,85.459038 233.998352,85.456177 
z"/>
<path fill="#1D6495" opacity="1.000000" stroke="none" 
	d="
M374.060364,101.186073 
	C371.079956,101.148369 368.551727,101.368637 366.105988,101.016251 
	C361.763641,100.390587 359.128754,97.608238 359.118134,93.271454 
	C359.108154,89.199249 361.516937,85.808357 365.641510,85.733223 
	C382.208862,85.431427 398.785004,85.608383 415.601959,85.608383 
	C415.601959,90.797569 415.601959,95.553368 415.601959,101.186073 
	C401.932648,101.186073 388.241180,101.186073 374.060364,101.186073 
z"/>
</svg>